HIERARCHY
ROOT Hips
{
	OFFSET 0.000000 71.427986 0.000000
	CHANNELS 6 Xposition Yposition Zposition Xrotation Yrotation Zrotation
	JOINT Pelvis
	{
		OFFSET 0.000000 0.000000 0.000000
		CHANNELS 3 Xrotation Yrotation Zrotation
		JOINT LeftUpLeg
		{
			OFFSET 6.797100 -2.508499 -1.318700
			CHANNELS 3 Xrotation Yrotation Zrotation
			JOINT LeftLeg
			{
				OFFSET 0.069008 -29.241863 0.690200
				CHANNELS 3 Xrotation Yrotation Zrotation
				JOINT LeftFoot
				{
					OFFSET -0.069008 -29.568123 -0.266800
					CHANNELS 3 Xrotation Yrotation Zrotation
					JOINT LeftToeBase
					{
						OFFSET 3.145500 -8.631000 16.059900
						CHANNELS 3 Xrotation Yrotation Zrotation
						End Site
						{
							OFFSET 0.000000 18.501587 0.000000
						}
					}
				}
			}
			JOINT Left_ShortSleeve
			{
				OFFSET 0.265923 -10.480953 1.153800
				CHANNELS 3 Xrotation Yrotation Zrotation
				End Site
				{
					OFFSET 1.725763 19.823879 0.000000
				}
			}
		}
		JOINT RightUpLeg
		{
			OFFSET -6.797100 -2.508499 -1.318700
			CHANNELS 3 Xrotation Yrotation Zrotation
			JOINT RightLeg
			{
				OFFSET -0.082453 -29.241932 0.688000
				CHANNELS 3 Xrotation Yrotation Zrotation
				JOINT RightFoot
				{
					OFFSET 0.082453 -29.568058 -0.264600
					CHANNELS 3 Xrotation Yrotation Zrotation
					JOINT RightToeBase
					{
						OFFSET -3.115300 -8.682800 16.113400
						CHANNELS 3 Xrotation Yrotation Zrotation
						End Site
						{
							OFFSET 0.000000 18.567114 0.000000
						}
					}
				}
			}
			JOINT Right_ShortSleeve
			{
				OFFSET -0.265923 -10.480953 1.153800
				CHANNELS 3 Xrotation Yrotation Zrotation
				End Site
				{
					OFFSET -1.725766 19.823910 0.000000
				}
			}
		}
	}
	JOINT Spine
	{
		OFFSET 0.000000 13.368103 0.470500
		CHANNELS 3 Xrotation Yrotation Zrotation
		JOINT Spine1
		{
			OFFSET 0.147000 13.837402 0.538800
			CHANNELS 3 Xrotation Yrotation Zrotation
			JOINT Spine2
			{
				OFFSET 0.168000 16.242897 -1.435500
				CHANNELS 3 Xrotation Yrotation Zrotation
				JOINT Neck
				{
					OFFSET 0.217200 18.631500 -1.679100
					CHANNELS 3 Xrotation Yrotation Zrotation
					JOINT Head
					{
						OFFSET 0.000000 6.599396 1.385900
						CHANNELS 3 Xrotation Yrotation Zrotation
						JOINT Hat
						{
							OFFSET -0.532200 27.220596 -10.096100
							CHANNELS 3 Xrotation Yrotation Zrotation
							End Site
							{
								OFFSET 0.000000 22.029861 0.000000
							}
						}
						JOINT HairD
						{
							OFFSET -10.777400 17.437393 -1.325900
							CHANNELS 3 Xrotation Yrotation Zrotation
							JOINT HairD1
							{
								OFFSET -3.290299 -11.051193 1.062200
								CHANNELS 3 Xrotation Yrotation Zrotation
								End Site
								{
									OFFSET 0.000000 11.579437 0.000000
								}
							}
						}
						JOINT HairB
						{
							OFFSET -10.777400 17.437393 1.467900
							CHANNELS 3 Xrotation Yrotation Zrotation
							JOINT HairB1
							{
								OFFSET -1.561200 -12.956299 3.590200
								CHANNELS 3 Xrotation Yrotation Zrotation
								End Site
								{
									OFFSET 0.000000 13.534866 0.000000
								}
							}
						}
						JOINT HairA
						{
							OFFSET 9.713100 17.437393 1.467900
							CHANNELS 3 Xrotation Yrotation Zrotation
							JOINT HairA1
							{
								OFFSET 1.561200 -12.956299 3.590200
								CHANNELS 3 Xrotation Yrotation Zrotation
								End Site
								{
									OFFSET 0.000000 13.534866 0.000000
								}
							}
						}
						JOINT HairC
						{
							OFFSET 9.713100 17.437393 -1.325900
							CHANNELS 3 Xrotation Yrotation Zrotation
							JOINT HairC1
							{
								OFFSET 3.290300 -11.051193 1.062200
								CHANNELS 3 Xrotation Yrotation Zrotation
								End Site
								{
									OFFSET 0.000000 11.579437 0.000000
								}
							}
						}
					}
				}
				JOINT LeftShoulder
				{
					OFFSET 5.101800 15.108002 -2.763700
					CHANNELS 3 Xrotation Yrotation Zrotation
					JOINT LeftArm
					{
						OFFSET 9.825497 2.506317 -1.597400
						CHANNELS 3 Xrotation Yrotation Zrotation
						JOINT LeftForeArm
						{
							OFFSET 21.966244 0.000000 0.000000
							CHANNELS 3 Xrotation Yrotation Zrotation
							JOINT LeftHand
							{
								OFFSET 33.879036 0.000000 0.000000
								CHANNELS 3 Xrotation Yrotation Zrotation
								JOINT LeftHandThumb1
								{
									OFFSET 6.715286 -2.359680 3.363841
									CHANNELS 3 Xrotation Yrotation Zrotation
									JOINT LeftHandThumb2
									{
										OFFSET 2.507072 -1.447464 1.447461
										CHANNELS 3 Xrotation Yrotation Zrotation
										JOINT LeftHandThumb3
										{
											OFFSET 2.898338 -1.673355 1.673357
											CHANNELS 3 Xrotation Yrotation Zrotation
											End Site
											{
												OFFSET -0.295959 3.727692 -0.131651
											}
										}
									}
								}
								JOINT LeftHandIndex1
								{
									OFFSET 14.190811 -0.254547 3.840278
									CHANNELS 3 Xrotation Yrotation Zrotation
									JOINT LeftHandIndex2
									{
										OFFSET 3.551727 0.000000 -0.000000
										CHANNELS 3 Xrotation Yrotation Zrotation
										JOINT LeftHandIndex3
										{
											OFFSET 2.894196 0.000000 0.000000
											CHANNELS 3 Xrotation Yrotation Zrotation
											End Site
											{
												OFFSET -1.000603 2.690872 0.366626
											}
										}
									}
								}
								JOINT LeftHandMiddle1
								{
									OFFSET 13.776489 0.000000 0.000000
									CHANNELS 3 Xrotation Yrotation Zrotation
									JOINT LeftHandMiddle2
									{
										OFFSET 3.438232 0.000000 0.000000
										CHANNELS 3 Xrotation Yrotation Zrotation
										JOINT LeftHandMiddle3
										{
											OFFSET 3.691551 0.000000 0.000000
											CHANNELS 3 Xrotation Yrotation Zrotation
											End Site
											{
												OFFSET -1.082298 3.499527 0.457670
											}
										}
									}
								}
								JOINT LeftHandRing1
								{
									OFFSET 13.966164 -0.268127 -3.067488
									CHANNELS 3 Xrotation Yrotation Zrotation
									JOINT LeftHandRing2
									{
										OFFSET 3.162567 0.000000 0.000000
										CHANNELS 3 Xrotation Yrotation Zrotation
										JOINT LeftHandRing3
										{
											OFFSET 3.324348 0.000000 0.000000
											CHANNELS 3 Xrotation Yrotation Zrotation
											End Site
											{
												OFFSET -0.861900 3.184998 0.405154
											}
										}
									}
								}
								JOINT LeftHandPinky1
								{
									OFFSET 13.131393 -0.168503 -5.746925
									CHANNELS 3 Xrotation Yrotation Zrotation
									JOINT LeftHandPinky2
									{
										OFFSET 2.849182 0.000000 0.000000
										CHANNELS 3 Xrotation Yrotation Zrotation
										JOINT LeftHandPinky3
										{
											OFFSET 2.805038 0.000000 0.000000
											CHANNELS 3 Xrotation Yrotation Zrotation
											End Site
											{
												OFFSET -0.882500 2.642609 0.325652
											}
										}
									}
								}
							}
							JOINT Left_Sleeve
							{
								OFFSET 6.592125 -0.646545 0.805568
								CHANNELS 3 Xrotation Yrotation Zrotation
								End Site
								{
									OFFSET -0.000179 20.275787 -0.000000
								}
							}
						}
					}
				}
				JOINT RightShoulder
				{
					OFFSET -5.731700 15.108002 -2.763700
					CHANNELS 3 Xrotation Yrotation Zrotation
					JOINT RightArm
					{
						OFFSET -9.825497 2.506317 -1.597400
						CHANNELS 3 Xrotation Yrotation Zrotation
						JOINT RightForeArm
						{
							OFFSET -21.966242 0.000000 0.000000
							CHANNELS 3 Xrotation Yrotation Zrotation
							JOINT RightHand
							{
								OFFSET -33.879032 0.000000 0.000000
								CHANNELS 3 Xrotation Yrotation Zrotation
								JOINT RightHandThumb1
								{
									OFFSET -6.715286 -2.359680 3.363841
									CHANNELS 3 Xrotation Yrotation Zrotation
									JOINT RightHandThumb2
									{
										OFFSET -2.507072 -1.447464 1.447461
										CHANNELS 3 Xrotation Yrotation Zrotation
										JOINT RightHandThumb3
										{
											OFFSET -2.898338 -1.673355 1.673357
											CHANNELS 3 Xrotation Yrotation Zrotation
											End Site
											{
												OFFSET 0.295959 3.727692 -0.131651
											}
										}
									}
								}
								JOINT RightHandIndex1
								{
									OFFSET -14.190811 -0.254547 3.840278
									CHANNELS 3 Xrotation Yrotation Zrotation
									JOINT RightHandIndex2
									{
										OFFSET -3.551727 0.000000 -0.000000
										CHANNELS 3 Xrotation Yrotation Zrotation
										JOINT RightHandIndex3
										{
											OFFSET -2.894196 0.000000 0.000000
											CHANNELS 3 Xrotation Yrotation Zrotation
											End Site
											{
												OFFSET 1.000603 2.690872 0.366626
											}
										}
									}
								}
								JOINT RightHandMiddle1
								{
									OFFSET -13.776489 0.000000 0.000000
									CHANNELS 3 Xrotation Yrotation Zrotation
									JOINT RightHandMiddle2
									{
										OFFSET -3.438232 0.000000 0.000000
										CHANNELS 3 Xrotation Yrotation Zrotation
										JOINT RightHandMiddle3
										{
											OFFSET -3.691551 0.000000 0.000000
											CHANNELS 3 Xrotation Yrotation Zrotation
											End Site
											{
												OFFSET 1.082298 3.499527 0.457670
											}
										}
									}
								}
								JOINT RightHandRing1
								{
									OFFSET -13.966164 -0.268127 -3.067488
									CHANNELS 3 Xrotation Yrotation Zrotation
									JOINT RightHandRing2
									{
										OFFSET -3.162567 0.000000 0.000000
										CHANNELS 3 Xrotation Yrotation Zrotation
										JOINT RightHandRing3
										{
											OFFSET -3.324348 0.000000 0.000000
											CHANNELS 3 Xrotation Yrotation Zrotation
											End Site
											{
												OFFSET 0.861900 3.184998 0.405154
											}
										}
									}
								}
								JOINT RightHandPinky1
								{
									OFFSET -13.131393 -0.168503 -5.746925
									CHANNELS 3 Xrotation Yrotation Zrotation
									JOINT RightHandPinky2
									{
										OFFSET -2.849182 0.000000 0.000000
										CHANNELS 3 Xrotation Yrotation Zrotation
										JOINT RightHandPinky3
										{
											OFFSET -2.805038 0.000000 0.000000
											CHANNELS 3 Xrotation Yrotation Zrotation
											End Site
											{
												OFFSET 0.882500 2.642609 0.325652
											}
										}
									}
								}
							}
							JOINT Right_Sleeve
							{
								OFFSET -6.592125 -0.646545 0.805568
								CHANNELS 3 Xrotation Yrotation Zrotation
								End Site
								{
									OFFSET 0.000179 20.275787 -0.000000
								}
							}
						}
					}
				}
				JOINT Bind_Right_JacketString
				{
					OFFSET -3.534800 11.969597 7.200700
					CHANNELS 3 Xrotation Yrotation Zrotation
					JOINT Bind_Right_JacketString1
					{
						OFFSET -0.319900 -6.102600 2.794100
						CHANNELS 3 Xrotation Yrotation Zrotation
						End Site
						{
							OFFSET 0.000000 6.719452 0.000000
						}
					}
				}
				JOINT Bind_Left_JacketString
				{
					OFFSET 2.904800 11.969597 7.200700
					CHANNELS 3 Xrotation Yrotation Zrotation
					JOINT Bind_Left_JacketString1
					{
						OFFSET 0.364800 -5.904503 3.186800
						CHANNELS 3 Xrotation Yrotation Zrotation
						End Site
						{
							OFFSET 0.000000 6.719513 0.000000
						}
					}
				}
				JOINT HairE
				{
					OFFSET 5.915200 17.612701 -11.592200
					CHANNELS 3 Xrotation Yrotation Zrotation
					JOINT HairE1
					{
						OFFSET 0.289200 -7.171898 -1.284500
						CHANNELS 3 Xrotation Yrotation Zrotation
						End Site
						{
							OFFSET 0.000000 7.291756 0.000000
						}
					}
				}
				JOINT HairF
				{
					OFFSET -0.864800 17.612701 -11.592200
					CHANNELS 3 Xrotation Yrotation Zrotation
					JOINT HairF1
					{
						OFFSET 0.000000 -14.087097 -2.127501
						CHANNELS 3 Xrotation Yrotation Zrotation
						End Site
						{
							OFFSET 0.000000 14.246841 0.000000
						}
					}
				}
				JOINT HairG
				{
					OFFSET -8.087700 17.612701 -11.592200
					CHANNELS 3 Xrotation Yrotation Zrotation
					JOINT HairG1
					{
						OFFSET -0.293600 -6.081398 -0.910100
						CHANNELS 3 Xrotation Yrotation Zrotation
						End Site
						{
							OFFSET 0.000000 6.156120 0.000000
						}
					}
				}
			}
		}
	}
	JOINT Pouch
	{
		OFFSET 0.000000 4.394501 10.847300
		CHANNELS 3 Xrotation Yrotation Zrotation
		End Site
		{
			OFFSET 0.000000 21.880577 0.000000
		}
	}
	JOINT Bag
	{
		OFFSET -13.229000 4.813004 -0.593300
		CHANNELS 3 Xrotation Yrotation Zrotation
		End Site
		{
			OFFSET 0.000000 21.880577 0.000000
		}
	}
	JOINT OccupyGuyFacialAnim_Joint
	{
		OFFSET 1.000000 -70.206398 -1.655000
		CHANNELS 3 Xrotation Yrotation Zrotation
		End Site
		{
			OFFSET 0.000000 21.880577 0.000000
		}
	}
}
MOTION
Frames: 5
Frame Time: 0.016667
-1.243011 38.270706 -0.620383 0.590311 -23.842215 8.855945 -0.000000 -0.000001 0.000000 -77.231490 -5.237276 46.416637 75.135462 6.790963 -5.673083 17.174128 -1.320825 -10.989035 0.000000 0.000000 -0.000000 0.000000 0.000001 0.000001 -19.906240 -10.030780 -15.842345 113.147835 0.071759 -0.822431 22.706175 1.542417 11.619847 0.000001 -0.000002 -0.000001 -0.000000 0.000002 0.000000 2.874606 -1.690483 -5.504968 2.227983 -1.286564 -3.027762 2.233816 -1.285665 -3.025123 -3.962410 3.288527 2.946571 -0.115028 19.920373 2.691782 0.000000 -0.000001 -0.000000 0.000000 -0.000001 -0.000000 0.000000 -0.000001 -0.000000 0.000000 -0.000001 -0.000000 0.000000 -0.000000 0.000000 0.000000 -0.000001 -0.000000 0.000000 -0.000000 0.000000 0.000000 -0.000001 -0.000000 0.000000 -0.000001 -0.000000 0.452718 1.693816 1.739611 -1.798693 -11.700848 -58.798667 0.000128 -83.306724 0.000190 -56.402900 17.147784 27.573294 -1.540053 3.690183 6.142356 3.939061 7.948715 0.746803 0.000000 0.000001 -0.000001 1.016545 3.605847 -31.478699 1.016522 3.605837 -31.478713 0.000003 0.000002 -0.000002 1.299291 4.030471 -35.722873 1.301561 4.033577 -35.755009 -0.000003 0.000000 0.000001 1.751622 4.592864 -41.733678 1.751614 4.592878 -41.733709 -0.000002 -0.000000 -0.000001 4.911445 7.752512 -44.887877 2.046409 0.814398 -45.446965 -0.000000 -0.000001 0.000001 -0.000000 0.000001 0.000000 5.136811 17.382616 7.477152 14.034102 22.826742 31.042274 0.000042 121.743942 -0.000059 2.429550 -25.805949 9.048803 -1.849246 -3.581792 -6.586150 4.637200 -8.634122 -0.225402 -0.000001 -0.000001 0.000002 0.013959 -0.441466 3.625103 0.176776 -1.560946 12.920991 0.000000 0.000002 0.000001 0.522942 -2.650092 22.321567 0.387255 -2.292313 19.175946 0.000002 -0.000003 0.000002 0.723851 -3.093966 26.329765 0.387268 -2.292321 19.175947 0.000003 0.000002 -0.000003 1.074277 -3.717940 32.222886 0.387272 -2.292309 19.175944 -0.000001 -0.000001 -0.000001 -0.000001 0.000002 0.000002 -0.000000 0.000001 0.000000 -0.000000 0.000001 -0.000000 -0.000000 0.000001 0.000000 -0.000000 0.000001 0.000000 -0.000000 0.000001 0.000000 -0.000000 0.000001 -0.000000 -0.000000 0.000001 0.000000 -0.000000 0.000001 0.000000 -0.000000 0.000001 0.000000 -0.000000 0.000001 -0.000000 -0.000000 -0.000001 0.000000 -0.000000 -0.000001 0.000000 -0.000000 -0.000001 0.000000 
-1.249296 38.275742 -0.620408 0.622684 -23.806882 8.860774 0.000000 -0.000000 0.000001 -77.231237 -5.288771 46.380598 75.128188 6.817759 -5.717831 17.188528 -1.319528 -10.951730 -0.000000 -0.000001 -0.000000 -0.000000 0.000001 -0.000001 -19.989054 -10.078487 -15.820871 113.240848 -0.102468 -0.808568 22.565118 1.505153 11.490412 0.000001 -0.000001 -0.000000 -0.000000 0.000003 0.000000 2.871889 -1.700438 -5.508809 2.224216 -1.288402 -3.033397 2.230123 -1.286488 -3.030591 -3.922923 3.288497 2.958157 -0.049251 19.944321 2.683308 0.000000 0.000000 -0.000000 0.000000 0.000000 -0.000000 0.000000 0.000000 -0.000000 0.000000 0.000000 -0.000001 -0.000000 0.000000 -0.000001 0.000000 0.000000 -0.000001 -0.000000 0.000000 -0.000001 0.000000 0.000000 -0.000000 0.000000 0.000000 -0.000000 0.482385 1.632740 1.765588 -1.851250 -11.677337 -58.833173 0.000184 -83.371140 0.000248 -56.190710 17.156021 27.669265 -1.540049 3.690180 6.142358 3.939061 7.948709 0.746805 -0.000000 0.000002 -0.000000 1.016546 3.605838 -31.478703 1.016520 3.605836 -31.478713 0.000001 0.000000 0.000002 1.299292 4.030471 -35.722873 1.301556 4.033582 -35.755006 0.000002 -0.000001 0.000001 1.751624 4.592857 -41.733675 1.751609 4.592881 -41.733709 0.000002 0.000000 0.000001 4.911444 7.752511 -44.887877 2.046410 0.814400 -45.446965 -0.000002 -0.000000 0.000001 -0.000000 -0.000000 0.000003 5.151221 17.427057 7.474814 14.053422 22.660445 31.058137 0.000021 121.812326 -0.000034 2.471098 -25.904531 9.104248 -1.849245 -3.581794 -6.586149 4.637196 -8.634125 -0.225406 0.000000 0.000000 0.000001 0.013969 -0.441484 3.625070 0.176773 -1.560925 12.921000 0.000000 0.000000 -0.000003 0.522943 -2.650115 22.321538 0.387257 -2.292308 19.175946 -0.000001 0.000000 -0.000002 0.723860 -3.093967 26.329727 0.387259 -2.292333 19.175939 0.000000 -0.000004 -0.000002 1.074274 -3.717948 32.222848 0.387270 -2.292303 19.175947 0.000000 -0.000002 0.000000 -0.000004 -0.000000 0.000003 0.000001 0.000000 0.000001 0.000001 0.000000 0.000000 0.000001 0.000000 0.000001 0.000001 0.000000 0.000001 0.000001 0.000000 0.000001 0.000001 0.000000 0.000000 0.000001 0.000000 0.000001 0.000001 0.000000 0.000001 0.000001 0.000000 0.000001 0.000001 0.000000 0.000000 0.000000 -0.000000 0.000001 0.000000 -0.000000 0.000001 0.000000 -0.000000 0.000001 
-1.256235 38.280876 -0.622234 0.650318 -23.774632 8.864558 0.000000 -0.000001 -0.000000 -77.222201 -5.340532 46.344217 75.116583 6.847599 -5.761793 17.205810 -1.318923 -10.920630 -0.000000 -0.000002 -0.000000 0.000000 -0.000001 -0.000001 -20.061000 -10.130123 -15.797213 113.322763 -0.274427 -0.798854 22.439782 1.472988 11.380618 -0.000000 -0.000001 -0.000001 0.000002 -0.000002 -0.000000 2.873674 -1.710073 -5.512579 2.223865 -1.290193 -3.038300 2.230374 -1.288407 -3.035256 -3.886561 3.294382 2.964091 -0.011394 19.978530 2.670442 0.000000 0.000000 0.000000 0.000000 0.000000 0.000000 0.000000 0.000000 -0.000000 0.000000 0.000000 0.000000 0.000000 -0.000000 0.000001 0.000000 0.000000 0.000000 0.000000 -0.000000 0.000001 0.000000 0.000000 0.000000 0.000000 0.000000 0.000000 0.506469 1.585637 1.768911 -1.905203 -11.648053 -58.840604 -0.000205 -83.445951 -0.000200 -56.101610 17.119292 27.700877 -1.540052 3.690180 6.142358 3.939061 7.948719 0.746804 -0.000000 -0.000000 -0.000001 1.016545 3.605843 -31.478699 1.016523 3.605838 -31.478713 -0.000001 -0.000000 -0.000002 1.299292 4.030468 -35.722873 1.301557 4.033581 -35.755006 -0.000002 0.000001 0.000001 1.751623 4.592854 -41.733675 1.751613 4.592882 -41.733709 0.000000 0.000001 -0.000001 4.911444 7.752512 -44.887873 2.046411 0.814401 -45.446962 -0.000002 -0.000001 -0.000001 -0.000001 -0.000000 -0.000001 5.163600 17.463962 7.466054 14.080606 22.520691 31.066815 0.000020 121.886638 -0.000025 2.595676 -26.024049 9.128051 -1.849247 -3.581793 -6.586149 4.637199 -8.634122 -0.225402 0.000002 0.000000 0.000003 0.013965 -0.441471 3.625097 0.176771 -1.560956 12.920974 0.000001 0.000003 -0.000001 0.522932 -2.650094 22.321538 0.387277 -2.292306 19.175923 -0.000000 -0.000003 -0.000001 0.723839 -3.093978 26.329741 0.387271 -2.292315 19.175937 0.000001 0.000002 -0.000005 1.074282 -3.717935 32.222855 0.387275 -2.292309 19.175944 -0.000002 0.000000 -0.000001 -0.000001 0.000001 0.000002 -0.000000 -0.000000 0.000001 0.000000 -0.000000 0.000001 -0.000000 -0.000000 0.000000 -0.000000 -0.000000 0.000000 -0.000000 -0.000000 0.000001 0.000000 -0.000000 0.000001 -0.000000 -0.000000 0.000000 -0.000000 -0.000000 0.000000 -0.000000 -0.000000 0.000001 0.000000 -0.000000 0.000001 0.000000 -0.000001 -0.000000 0.000000 -0.000001 -0.000000 0.000000 -0.000001 -0.000000 
-1.264085 38.286232 -0.626249 0.674278 -23.750951 8.869468 -0.000000 0.000000 -0.000000 -77.200460 -5.390148 46.311486 75.100457 6.880723 -5.805365 17.223726 -1.320104 -10.904464 0.000000 -0.000001 -0.000000 -0.000000 -0.000003 0.000001 -20.122786 -10.179061 -15.774095 113.392581 -0.438243 -0.793288 22.333467 1.446174 11.290512 0.000002 0.000000 0.000002 -0.000000 -0.000000 -0.000000 2.879459 -1.720156 -5.517272 2.225576 -1.291793 -3.043521 2.232485 -1.289743 -3.040205 -3.853554 3.304085 2.962689 -0.005854 20.019076 2.662787 0.000000 0.000000 -0.000000 0.000000 0.000000 -0.000000 0.000000 0.000000 -0.000000 0.000000 0.000000 -0.000001 0.000000 0.000000 -0.000000 0.000000 0.000000 -0.000001 0.000000 0.000000 -0.000000 0.000000 0.000000 -0.000000 0.000000 0.000000 -0.000000 0.522518 1.557777 1.745666 -1.958940 -11.606911 -58.821541 -0.000144 -83.536834 -0.000116 -56.009771 17.105212 27.723933 -1.540049 3.690186 6.142357 3.939063 7.948711 0.746806 0.000000 0.000003 0.000000 1.016544 3.605848 -31.478703 1.016521 3.605834 -31.478709 0.000000 0.000002 -0.000003 1.299293 4.030471 -35.722876 1.301563 4.033574 -35.755009 0.000004 0.000001 0.000001 1.751622 4.592866 -41.733675 1.751616 4.592885 -41.733709 0.000001 0.000001 -0.000001 4.911443 7.752511 -44.887870 2.046410 0.814402 -45.446969 -0.000003 0.000000 -0.000001 0.000000 0.000002 0.000002 5.172909 17.491988 7.451951 14.105765 22.416233 31.064110 0.000020 121.951375 -0.000021 2.794223 -26.106457 9.140192 -1.849244 -3.581792 -6.586146 4.637196 -8.634122 -0.225404 -0.000001 0.000001 0.000003 0.013974 -0.441481 3.625078 0.176774 -1.560933 12.921003 -0.000000 0.000003 0.000001 0.522937 -2.650107 22.321557 0.387275 -2.292312 19.175927 -0.000000 -0.000002 0.000001 0.723850 -3.093974 26.329758 0.387265 -2.292325 19.175932 -0.000000 0.000003 -0.000003 1.074284 -3.717946 32.222862 0.387295 -2.292318 19.175934 -0.000000 0.000005 0.000001 -0.000002 -0.000003 -0.000002 -0.000000 0.000001 0.000000 0.000001 0.000001 -0.000000 -0.000000 0.000001 -0.000000 -0.000000 0.000001 -0.000000 -0.000000 0.000001 0.000000 0.000001 0.000001 -0.000000 -0.000000 0.000001 -0.000000 -0.000000 0.000001 -0.000000 -0.000000 0.000001 0.000000 0.000001 0.000001 -0.000000 -0.000000 0.000000 -0.000000 -0.000000 0.000000 -0.000000 -0.000000 0.000000 -0.000000 
-1.273272 38.291801 -0.632693 0.695408 -23.738433 8.879412 0.000000 0.000001 -0.000000 -77.164574 -5.433348 46.284131 75.076825 6.916199 -5.848208 17.243682 -1.322890 -10.903531 -0.000000 0.000000 0.000000 -0.000000 0.000002 -0.000001 -20.175960 -10.214003 -15.756505 113.448260 -0.574131 -0.792287 22.255198 1.430136 11.244026 0.000002 0.000000 -0.000001 0.000001 -0.000001 0.000000 2.887754 -1.730498 -5.523768 2.230086 -1.293041 -3.049934 2.235818 -1.290961 -3.046373 -3.822533 3.316908 2.955109 -0.029435 20.063554 2.665989 0.000000 -0.000000 0.000000 0.000000 -0.000000 0.000000 0.000000 -0.000000 -0.000000 0.000000 -0.000000 0.000000 0.000000 0.000000 0.000000 0.000000 -0.000000 0.000000 0.000000 0.000000 0.000000 0.000000 -0.000000 0.000000 0.000000 -0.000000 0.000000 0.530838 1.548089 1.698934 -2.011591 -11.548427 -58.783402 -0.000276 -83.644102 -0.000256 -55.910955 17.114425 27.736934 -1.540052 3.690180 6.142356 3.939061 7.948711 0.746805 0.000000 0.000004 0.000000 1.016545 3.605843 -31.478699 1.016519 3.605834 -31.478713 0.000000 -0.000001 0.000001 1.299292 4.030470 -35.722873 1.301558 4.033581 -35.755009 -0.000004 -0.000000 0.000001 1.751624 4.592859 -41.733678 1.751614 4.592879 -41.733709 -0.000001 0.000000 0.000001 4.911444 7.752514 -44.887873 2.046410 0.814401 -45.446969 -0.000001 0.000000 0.000001 0.000001 -0.000001 -0.000001 5.178690 17.514109 7.436935 14.117873 22.346441 31.052130 0.000025 121.993107 -0.000023 3.032389 -26.098926 9.170782 -1.849246 -3.581795 -6.586148 4.637195 -8.634124 -0.225404 0.000001 0.000001 -0.000001 0.013973 -0.441480 3.625098 0.176766 -1.560953 12.920991 0.000005 0.000000 -0.000001 0.522932 -2.650100 22.321601 0.387273 -2.292322 19.175937 -0.000000 0.000002 -0.000002 0.723870 -3.093987 26.329775 0.387252 -2.292306 19.175941 -0.000000 0.000004 -0.000002 1.074273 -3.717976 32.222910 0.387293 -2.292322 19.175930 0.000000 0.000003 -0.000001 -0.000001 -0.000002 -0.000001 0.000000 -0.000000 0.000000 0.000001 -0.000000 0.000000 0.000000 -0.000000 0.000000 0.000000 -0.000000 0.000000 0.000000 -0.000000 0.000000 0.000001 -0.000000 0.000000 0.000000 -0.000000 0.000000 0.000000 -0.000000 0.000000 0.000000 -0.000000 0.000000 0.000001 -0.000000 0.000000 0.000000 0.000001 -0.000000 0.000000 0.000001 -0.000000 0.000000 0.000001 -0.000000 
